<svg width="189" height="139" viewBox="0 0 189 139" fill="none" xmlns="http://www.w3.org/2000/svg">
<path d="M163.869 121.157H163.776M163.776 121.157C181.025 116.246 190.949 98.2704 185.941 81.0362C182.231 68.3422 171.473 59.6325 159.139 57.9647C159.325 56.2969 159.417 54.629 159.417 52.9612C159.417 24.7936 136.604 2 108.411 2C87.6374 2 69.8316 14.416 61.856 32.1135C57.4973 30.7236 52.9531 29.797 48.1307 29.797C22.5347 29.797 1.76123 50.5522 1.76123 76.1254C1.76123 101.699 22.5347 122.454 48.1307 122.454L79.2388 122.454M163.776 121.157H115.239" stroke="#217CBB" stroke-width="2.5" stroke-linecap="round"/>
<path d="M152.701 117.312C150.093 118.045 147.403 118.29 144.795 118.29L50.9888 118.453C28.4948 118.453 10.2388 100.189 10.2388 77.6839C10.2388 55.1793 28.4948 36.9147 50.9888 36.9147C55.2268 36.9147 59.2203 37.73 63.0508 38.9531C70.0598 23.3793 85.7079 12.4531 103.964 12.4531C128.74 12.4531 148.789 32.5116 148.789 57.2993C148.789 58.767 148.707 60.2347 148.544 61.7024C159.384 63.17 168.838 70.8347 172.098 82.0054C176.499 97.1716 167.778 112.99 152.619 117.312H152.701Z" fill="#DCEDF9"/>
<path d="M96.7388 137.453L96.7388 77.4531M96.7388 77.4531L114.239 94.6945M96.7388 77.4531L79.2388 94.6945" stroke="#217CBB" stroke-width="2.5" stroke-linecap="round"/>
<path d="M54.9399 59.1875C55.0386 58.6054 55.8237 58.5689 56.0083 59.0781L56.0366 59.1875L56.7534 63.4258C56.8569 64.0381 57.3118 64.5274 57.9067 64.6777L58.0278 64.7031L62.2515 65.4219C62.831 65.5205 62.8678 66.3127 62.3608 66.498L62.2515 66.5264L58.0278 67.2451C57.4153 67.3493 56.9283 67.8065 56.7788 68.4014L56.7534 68.5225L56.0366 72.7607C55.938 73.3429 55.1528 73.3794 54.9683 72.8701L54.9399 72.7607L54.2231 68.5225C54.1197 67.91 53.6648 67.4208 53.0698 67.2705L52.9497 67.2451L48.7251 66.5264C48.1453 66.4277 48.109 65.6351 48.6167 65.4502L48.7251 65.4219L52.9497 64.7031C53.5621 64.5988 54.0494 64.1417 54.1987 63.5469L54.2231 63.4258L54.9399 59.1875ZM72.6577 57.6924C72.7563 57.1101 73.5426 57.0735 73.7271 57.583L73.7554 57.6924L74.0112 59.21C74.1148 59.8221 74.5699 60.3115 75.1646 60.4619L75.2856 60.4873L76.7974 60.7441C77.3772 60.8428 77.4135 61.6354 76.9058 61.8203L76.7974 61.8486L75.2856 62.1055C74.6729 62.2097 74.1859 62.6675 74.0366 63.2627L74.0112 63.3828L73.7554 64.9004C73.6566 65.4829 72.87 65.519 72.686 65.0088L72.6577 64.9004L72.4019 63.3828C72.2983 62.7707 71.8433 62.2812 71.2485 62.1309L71.1274 62.1055L69.6157 61.8486C69.0359 61.75 68.9997 60.9574 69.5073 60.7725L69.6157 60.7441L71.1274 60.4873C71.7401 60.3831 72.2271 59.9252 72.3765 59.3301L72.4019 59.21L72.6577 57.6924Z" stroke="#217CBB"/>
<path d="M51.7612 74.2266C51.9016 74.2266 52.0793 74.3054 52.1558 74.5537L52.1812 74.6699L52.4067 76.1641C52.4936 76.7405 52.8854 77.2483 53.4517 77.4082L53.5669 77.4355L54.895 77.6885C55.1039 77.7284 55.2612 77.9215 55.2612 78.2266C55.2612 78.4936 55.1404 78.6745 54.9702 78.7422L54.895 78.7646L53.5669 79.0176C52.9781 79.1299 52.5551 79.6088 52.4282 80.1748L52.4067 80.2891L52.1812 81.7832C52.1297 82.1237 51.9215 82.2266 51.7612 82.2266C51.6208 82.2266 51.4432 82.1478 51.3667 81.8994L51.3413 81.7832L51.1157 80.2891C51.0289 79.7126 50.6371 79.2048 50.0708 79.0449L49.9556 79.0176L48.6274 78.7646C48.4186 78.7247 48.2612 78.5316 48.2612 78.2266C48.2612 77.9595 48.382 77.7787 48.5522 77.7109L48.6274 77.6885L49.9556 77.4355C50.5444 77.3232 50.9673 76.8443 51.0942 76.2783L51.1157 76.1641L51.3413 74.6699C51.3928 74.3295 51.6009 74.2266 51.7612 74.2266Z" stroke="#217CBB"/>
</svg>
